<svg version="1.1" id="Variation_2" xmlns="http://www.w3.org/2000/svg" xmlns:xlink="http://www.w3.org/1999/xlink" x="0px"
	 y="0px" viewBox="0 0 531.1 411.5" style="enable-background:new 0 0 531.1 411.5;" xml:space="preserve">
<style type="text/css">
	.st0{fill:#F38207;}
</style>
<g>
	<path class="st0" d="M213.7,143.5v182.4c-34-14.8-65.6-41.3-94.6-79.6c-31-40.8-46.5-79.5-46.5-116c0-25.5,8.3-45.8,24.8-60.9
		c15.1-13.9,34.3-20.8,57.5-20.8c25.8,0,63,8.2,90.3,24.6C209.7-9.3,153.2,0.4,142.6,0.4S76.9,11,54.4,32.4
		c-23.5,22.5-35.3,52.9-35.3,91.4c0,64.5,25.9,123.8,77.8,178c47.7,49.8,105.6,88.2,176.2,104.5c2.1,0.5,2.9-0.4,2.8-0.4
		c0,0,0.6-1.5,0-3c-1.9-4.8-3.3-9-4.2-12.4c-4.1-13.7-6.2-26.5-6.2-38.5V155.4c0-9.6,0.4-16.8,1.1-21.7c1.4-9.1,4.3-17.5,8.5-25.4
		H118.2v56.5c9.2-6.4,19.1-11.4,29.7-15c10.6-3.6,25.6-6.4,35.8-6.4H213.7L213.7,143.5z"/>
	<path class="st0" d="M336.6,143.5v182.4c34-14.8,65.6-41.3,94.6-79.6c31-40.8,46.5-79.5,46.5-116c0-25.5-8.3-45.8-24.8-60.9
		c-15.1-13.9-34.3-20.8-57.5-20.8c-25.8,0-63,8.2-90.3,24.6C340.6-9.3,397,0.3,407.7,0.3c10.6,0,65.7,10.7,88.2,32.1
		c23.5,22.5,35.3,52.9,35.3,91.4c0,64.5-25.9,123.8-77.8,178c-47.7,49.8-105.6,88.2-176.2,104.5c-2.1,0.5-2.9-0.4-2.8-0.4
		c0,0-0.6-1.5,0-3c1.9-4.8,3.3-9,4.2-12.4c4.1-13.7,6.2-26.5,6.2-38.5V155.4c0-9.6-0.4-16.8-1.1-21.7c-1.4-9.1-4.3-17.5-8.5-25.4h52
		H432v56.5c-9.2-6.4-19.1-11.4-29.7-15c-10.6-3.6-25.6-6.4-35.8-6.4H336.6L336.6,143.5z"/>
</g>
<path class="st0" d="M0,411.5c0,0,0-5,0-5S0,411.5,0,411.5L0,411.5z"/>
</svg>
